<?xml version="1.0" standalone="no"?>
<!DOCTYPE svg PUBLIC "-//W3C//DTD SVG 20010904//EN"
 "http://www.w3.org/TR/2001/REC-SVG-20010904/DTD/svg10.dtd">
<svg version="1.0" xmlns="http://www.w3.org/2000/svg"
 width="260.000000pt" height="260.000000pt" viewBox="0 0 260.000000 260.000000"
 preserveAspectRatio="xMidYMid meet">
<metadata>
Created by potrace 1.11, written by Peter Selinger 2001-2013
</metadata>
<g transform="translate(0.000000,260.000000) scale(0.100000,-0.100000)"
fill="#000000" stroke="none">
<path d="M0 2581 c0 -12 4 -20 9 -16 5 3 13 1 16 -5 4 -6 1 -9 -7 -8 -7 2 -13
-4 -13 -12 0 -8 6 -14 13 -12 8 1 11 -2 7 -8 -3 -6 -11 -8 -16 -4 -6 3 -8 -25
-6 -73 3 -55 7 -77 16 -75 7 1 10 -2 6 -8 -3 -6 -11 -8 -16 -5 -14 9 -11 -59
4 -74 7 -9 7 -11 1 -8 -9 5 -12 -21 -12 -93 0 -55 4 -97 8 -95 5 3 12 1 15 -5
4 -6 1 -9 -7 -8 -7 2 -13 -4 -13 -12 0 -8 6 -14 13 -12 8 1 11 -2 7 -8 -3 -6
-11 -8 -16 -4 -6 3 -8 -25 -6 -73 3 -55 7 -77 16 -75 7 1 10 -2 6 -8 -3 -6
-11 -8 -16 -4 -6 4 -9 -16 -6 -53 2 -40 7 -57 16 -55 7 1 10 -2 6 -8 -3 -6
-10 -8 -15 -5 -4 2 -8 -40 -8 -95 0 -55 4 -98 8 -95 5 3 12 1 15 -5 4 -6 1 -9
-7 -8 -7 2 -13 -4 -13 -12 0 -8 6 -14 13 -12 8 1 11 -2 7 -8 -3 -6 -10 -8 -15
-5 -5 3 -8 -71 -7 -172 2 -141 5 -177 15 -175 8 1 11 -2 7 -8 -3 -6 -11 -8
-16 -5 -14 9 -11 -59 3 -74 10 -11 10 -12 1 -7 -9 5 -12 -1 -11 -18 1 -15 9
-26 18 -27 8 0 34 -1 58 -2 23 -1 42 2 42 6 0 5 5 5 11 2 6 -4 125 -7 265 -7
l254 1 0 -495 0 -494 888 0 888 0 0 888 -1 887 -407 0 c-223 0 -409 3 -412 6
-4 3 -8 71 -9 150 -2 111 -6 143 -16 141 -7 -1 -10 2 -6 8 3 6 10 8 15 5 5 -3
8 102 7 234 l-1 239 -98 0 c-54 0 -95 -4 -93 -8 3 -5 1 -12 -5 -15 -6 -4 -9
-1 -8 7 2 7 -4 13 -12 13 -8 0 -14 -6 -12 -13 1 -8 -2 -11 -8 -7 -6 3 -8 11
-5 16 4 5 -25 8 -72 6 -56 -3 -77 -7 -75 -16 1 -7 -2 -10 -8 -6 -6 3 -8 11 -4
16 4 6 -16 9 -53 6 -40 -2 -57 -7 -55 -16 1 -7 -2 -10 -8 -6 -6 3 -8 10 -5 15
2 4 -40 8 -95 8 -55 0 -98 -4 -95 -8 3 -5 1 -12 -5 -15 -6 -4 -9 -1 -8 7 2 7
-4 13 -12 13 -8 0 -14 -6 -12 -13 1 -8 -2 -11 -8 -7 -6 3 -8 10 -5 14 2 5 -94
8 -215 8 -159 0 -218 -3 -213 -11 3 -6 0 -5 -8 2 -15 14 -83 17 -74 3 3 -5 1
-13 -5 -16 -6 -4 -9 -1 -8 6 2 10 -30 14 -145 16 -115 2 -146 0 -141 -10 5 -8
2 -7 -9 2 -15 12 -17 11 -17 -8z m370 1 c0 -5 -7 -9 -15 -9 -8 0 -12 4 -9 9 3
4 9 8 15 8 5 0 9 -4 9 -8z m444 0 c3 -5 -1 -9 -9 -9 -8 0 -15 4 -15 9 0 4 4 8
9 8 6 0 12 -4 15 -8z m240 0 c3 -5 -1 -9 -9 -9 -8 0 -15 4 -15 9 0 4 4 8 9 8
6 0 12 -4 15 -8z m120 0 c3 -5 -1 -9 -9 -9 -8 0 -15 4 -15 9 0 4 4 8 9 8 6 0
12 -4 15 -8z m276 0 c0 -5 -7 -9 -15 -9 -8 0 -12 4 -9 9 3 4 9 8 15 8 5 0 9
-4 9 -8z m-703 -17 c0 -8 -4 -15 -9 -15 -10 0 -11 14 -1 23 9 10 10 9 10 -8z
m-303 -3 c3 -5 -1 -9 -9 -9 -8 0 -12 4 -9 9 3 4 7 8 9 8 2 0 6 -4 9 -8z m170
0 c3 -5 -1 -9 -9 -9 -8 0 -12 4 -9 9 3 4 7 8 9 8 2 0 6 -4 9 -8z m393 -7 c0
-8 -4 -12 -9 -9 -5 3 -6 10 -3 15 9 13 12 11 12 -6z m478 6 c3 -5 2 -12 -3
-15 -5 -3 -9 1 -9 9 0 17 3 19 12 6z m-868 -39 c-10 -10 -14 -22 -10 -27 5 -4
2 -5 -5 -1 -11 6 -10 12 4 27 9 10 19 19 22 19 3 0 -2 -8 -11 -18z m-472 -1
c-9 -8 -36 -10 -30 -2 2 4 11 8 20 8 8 0 13 -3 10 -6z m325 0 c0 -6 -4 -12 -8
-15 -5 -3 -9 1 -9 9 0 8 4 15 9 15 4 0 8 -4 8 -9z m34 1 c3 -5 -1 -9 -9 -9 -8
0 -12 4 -9 9 3 4 7 8 9 8 2 0 6 -4 9 -8z m226 -2 c0 -5 -2 -10 -4 -10 -3 0 -8
5 -11 10 -3 6 -1 10 4 10 6 0 11 -4 11 -10z m131 -13 c-10 -9 -11 -8 -5 6 3
10 9 15 12 12 3 -3 0 -11 -7 -18z m113 14 c-8 -8 -34 -10 -38 -2 -3 4 6 7 19
7 14 0 22 -2 19 -5z m132 -3 c3 -4 -1 -5 -10 -4 -8 1 -18 5 -22 8 -3 4 1 5 10
4 8 -1 18 -5 22 -8z m59 3 c-9 -8 -36 -10 -30 -2 2 4 11 8 20 8 8 0 13 -3 10
-6z m139 0 c-7 -8 -54 -9 -49 -1 2 3 15 6 29 6 14 0 23 -2 20 -5z m220 0 c-8
-8 -34 -10 -38 -2 -3 4 6 7 19 7 14 0 22 -2 19 -5z m-878 -27 c1 -9 0 -13 -4
-10 -3 4 -7 14 -8 22 -1 9 0 13 4 10 3 -4 7 -14 8 -22z m-432 8 c3 -5 -1 -9
-9 -9 -8 0 -15 4 -15 9 0 4 4 8 9 8 6 0 12 -4 15 -8z m361 -2 c3 -6 -1 -7 -9
-4 -18 7 -21 14 -7 14 6 0 13 -4 16 -10z m230 -9 c3 -5 2 -12 -3 -15 -5 -3 -9
1 -9 9 0 17 3 19 12 6z m143 -16 c-3 -3 -9 2 -12 12 -6 14 -5 15 5 6 7 -7 10
-15 7 -18z m359 10 c0 -8 -4 -15 -9 -15 -10 0 -11 14 -1 23 9 10 10 9 10 -8z
m220 1 c0 -15 -21 -16 -34 -1 -4 4 -3 5 4 1 6 -3 14 -2 18 4 8 14 12 13 12 -4z
m-1042 -5 c-9 -8 -36 -10 -30 -2 2 4 11 8 20 8 8 0 13 -3 10 -6z m199 1 c3 -5
-1 -9 -9 -9 -8 0 -12 4 -9 9 3 4 7 8 9 8 2 0 6 -4 9 -8z m66 4 c0 -3 -4 -8
-10 -11 -5 -3 -10 -1 -10 4 0 6 5 11 10 11 6 0 10 -2 10 -4z m136 -18 c19 -23
19 -23 -2 -5 -11 9 -24 14 -29 10 -4 -5 -5 -2 -1 5 9 16 10 16 32 -10z m39 13
c3 -5 2 -12 -3 -15 -5 -3 -9 1 -9 9 0 17 3 19 12 6z m62 -6 c0 -8 -4 -12 -9
-9 -4 3 -8 9 -8 15 0 5 4 9 8 9 5 0 9 -7 9 -15z m293 9 c0 -8 -19 -13 -24 -6
-3 5 1 9 9 9 8 0 15 -2 15 -3z m86 -20 c1 -9 0 -13 -4 -10 -3 4 -7 14 -8 22
-1 9 0 13 4 10 3 -4 7 -14 8 -22z m208 18 c3 -5 -1 -9 -9 -9 -8 0 -12 4 -9 9
3 4 7 8 9 8 2 0 6 -4 9 -8z m-1488 -48 c0 -13 -2 -22 -5 -19 -3 3 -6 17 -7 31
0 13 2 22 5 19 3 -3 6 -17 7 -31z m44 24 c0 -4 -4 -8 -9 -8 -6 0 -12 4 -15 8
-3 5 1 9 9 9 8 0 15 -4 15 -9z m538 -23 c-3 -3 -9 2 -12 12 -6 14 -5 15 5 6 7
-7 10 -15 7 -18z m602 4 c0 -5 -4 -9 -8 -9 -5 0 -9 7 -9 15 0 8 4 12 9 9 4 -3
8 -9 8 -15z m313 6 c-3 -9 -8 -14 -10 -11 -3 3 -2 9 2 15 9 16 15 13 8 -4z
m-1393 -5 c0 -5 -5 -10 -11 -10 -5 0 -7 5 -4 10 3 6 8 10 11 10 2 0 4 -4 4
-10z m37 -7 c0 -9 -4 -10 -14 -2 -7 6 -13 12 -13 14 0 1 6 2 13 2 8 0 14 -6
14 -14z m127 9 c3 -5 -1 -9 -9 -9 -8 0 -12 4 -9 9 3 4 7 8 9 8 2 0 6 -4 9 -8z
m356 0 c0 -5 -7 -9 -15 -9 -8 0 -12 4 -9 9 3 4 9 8 15 8 5 0 9 -4 9 -8z m274
-3 c3 -3 -4 -5 -14 -6 -11 -1 -20 2 -20 7 0 8 25 8 34 -1z m570 3 c3 -5 -1 -9
-9 -9 -8 0 -15 4 -15 9 0 4 4 8 9 8 6 0 12 -4 15 -8z m-1429 -11 c3 -5 2 -12
-3 -15 -5 -3 -9 1 -9 9 0 17 3 19 12 6z m298 -24 c4 3 7 4 7 0 0 -17 -20 -14
-36 6 -19 22 -19 22 2 4 11 -9 24 -14 27 -10z m63 -2 c-1 -13 -4 -27 -7 -30
-5 -4 -4 41 0 53 4 10 8 -2 7 -23z m-119 0 c0 -8 -4 -12 -9 -9 -5 3 -6 10 -3
15 9 13 12 11 12 -6z m183 -6 c0 -5 -4 -9 -8 -9 -5 0 -9 7 -9 15 0 8 4 12 9 9
4 -3 8 -9 8 -15z m-330 5 c0 -8 -19 -13 -24 -6 -3 5 1 9 9 9 8 0 15 -2 15 -3z
m605 -3 c-9 -8 -36 -10 -30 -2 2 4 11 8 20 8 8 0 13 -3 10 -6z m145 4 c0 -7
-30 -13 -34 -7 -3 4 4 9 15 9 10 1 19 0 19 -2z m280 -1 c0 -8 -19 -13 -24 -6
-3 5 1 9 9 9 8 0 15 -2 15 -3z m54 -6 c-3 -4 -11 -5 -19 -1 -21 7 -19 12 4 10
11 0 18 -5 15 -9z m-1058 -23 c1 -8 -1 -17 -5 -19 -4 -3 -7 6 -7 19 0 25 8 25
12 0z m800 7 c-3 -3 -1 -10 4 -17 7 -8 6 -12 -3 -12 -7 0 -13 11 -13 23 0 12
4 20 9 17 4 -3 6 -8 3 -11z m160 -6 c0 -14 -3 -23 -7 -20 -6 3 -6 22 0 42 3
10 7 -2 7 -22z m-920 -10 c1 -7 -4 -13 -12 -13 -9 0 -11 4 -4 12 5 7 8 15 5
18 -3 4 -2 5 2 2 4 -3 8 -11 9 -19z m408 12 c-3 -4 -9 -8 -15 -8 -5 0 -9 4 -9
8 0 5 7 9 15 9 8 0 12 -4 9 -9z m391 3 c3 -5 2 -12 -3 -15 -5 -3 -9 1 -9 9 0
17 3 19 12 6z m82 2 c-4 -3 -2 -11 3 -18 7 -8 5 -12 -4 -12 -8 0 -12 7 -11 16
5 22 4 21 12 21 3 0 3 -3 0 -7z m403 -5 c0 -4 -4 -8 -9 -8 -6 0 -12 4 -15 8
-3 5 1 9 9 9 8 0 15 -4 15 -9z m-1147 -13 c-3 -9 -8 -14 -10 -11 -3 3 -2 9 2
15 9 16 15 13 8 -4z m400 0 c-3 -9 -8 -14 -10 -11 -3 3 -2 9 2 15 9 16 15 13
8 -4z m127 -6 c0 -5 -4 -9 -8 -9 -5 0 -9 7 -9 15 0 8 4 12 9 9 4 -3 8 -9 8
-15z m357 6 c0 -8 -4 -15 -9 -15 -10 0 -11 14 -1 23 9 10 10 9 10 -8z m-737 1
c0 -3 -4 -8 -10 -11 -5 -3 -10 -1 -10 4 0 6 5 11 10 11 6 0 10 -2 10 -4z
m-243 -21 c0 -8 -4 -15 -9 -15 -10 0 -11 14 -1 23 9 10 10 9 10 -8z m803 -4
c0 -6 -4 -12 -8 -15 -5 -3 -9 1 -9 9 0 8 4 15 9 15 4 0 8 -4 8 -9z m-1103 -16
c0 -8 -4 -15 -9 -15 -10 0 -11 14 -1 23 9 10 10 9 10 -8z m1040 0 c0 -8 -4
-15 -9 -15 -10 0 -11 14 -1 23 9 10 10 9 10 -8z m-981 -21 c1 -9 0 -13 -4 -10
-3 4 -7 14 -8 22 -1 9 0 13 4 10 3 -4 7 -14 8 -22z m201 11 c0 -8 -4 -12 -9
-9 -5 3 -6 10 -3 15 9 13 12 11 12 -6z m263 6 c0 -6 -4 -12 -8 -15 -5 -3 -9 1
-9 9 0 8 4 15 9 15 4 0 8 -4 8 -9z m140 3 c0 -8 -19 -13 -24 -6 -3 5 1 9 9 9
8 0 15 -2 15 -3z m240 0 c0 -8 -19 -13 -24 -6 -3 5 1 9 9 9 8 0 15 -2 15 -3z
m235 -3 c3 -5 2 -12 -3 -15 -5 -3 -9 1 -9 9 0 17 3 19 12 6z m175 3 c0 -8 -19
-13 -24 -6 -3 5 1 9 9 9 8 0 15 -2 15 -3z m-1010 -8 c0 -2 -8 -10 -17 -17 -16
-13 -17 -12 -4 4 13 16 21 21 21 13z m475 -15 c3 -5 2 -12 -3 -15 -5 -3 -9 1
-9 9 0 17 3 19 12 6z m45 -3 c0 -4 -4 -8 -9 -8 -6 0 -12 4 -15 8 -3 5 1 9 9 9
8 0 15 -4 15 -9z m285 2 c3 -6 -1 -7 -9 -4 -18 7 -21 14 -7 14 6 0 13 -4 16
-10z m279 -2 c-3 -4 -9 -8 -15 -8 -5 0 -9 4 -9 8 0 5 7 9 15 9 8 0 12 -4 9 -9z
m32 -17 c-1 -16 -4 -32 -7 -35 -4 -4 -4 49 0 62 4 11 8 -3 7 -27z m-556 15 c0
-2 -8 -10 -17 -17 -16 -13 -17 -12 -4 4 13 16 21 21 21 13z m475 -5 c3 -5 2
-12 -3 -15 -5 -3 -9 1 -9 9 0 17 3 19 12 6z m-1251 -9 c3 -5 -1 -9 -9 -9 -8 0
-12 4 -9 9 3 4 7 8 9 8 2 0 6 -4 9 -8z m301 -2 c-3 -5 -12 -10 -18 -10 -7 0
-6 4 3 10 19 12 23 12 15 0z m150 1 c-9 -8 -36 -10 -30 -2 2 4 11 8 20 8 8 0
13 -3 10 -6z m180 0 c-9 -8 -36 -10 -30 -2 2 4 11 8 20 8 8 0 13 -3 10 -6z
m445 3 c0 -8 -19 -13 -24 -6 -3 5 1 9 9 9 8 0 15 -2 15 -3z m95 -12 c-3 -3
-11 0 -18 7 -9 10 -8 11 6 5 10 -3 15 -9 12 -12z m198 3 c4 -8 3 -16 -1 -19
-4 -3 -9 4 -9 15 -2 23 3 25 10 4z m-996 -10 c0 -8 -4 -12 -9 -9 -5 3 -6 10
-3 15 9 13 12 11 12 -6z m-322 -13 c-3 -3 -11 0 -18 7 -9 10 -8 11 6 5 10 -3
15 -9 12 -12z m205 14 c0 -2 -7 -7 -16 -10 -8 -3 -12 -2 -9 4 6 10 25 14 25 6z
m84 -4 c3 -5 -1 -9 -9 -9 -8 0 -15 4 -15 9 0 4 4 8 9 8 6 0 12 -4 15 -8z m526
4 c0 -2 -8 -10 -17 -17 -16 -13 -17 -12 -4 4 13 16 21 21 21 13z m226 -22 c1
-9 0 -13 -4 -10 -3 4 -7 14 -8 22 -1 9 0 13 4 10 3 -4 7 -14 8 -22z m324 18
c0 -5 -7 -9 -15 -9 -8 0 -12 4 -9 9 3 4 9 8 15 8 5 0 9 -4 9 -8z m-1403 -17
c0 -8 -4 -12 -9 -9 -5 3 -6 10 -3 15 9 13 12 11 12 -6z m620 0 c0 -8 -4 -15
-9 -15 -10 0 -11 14 -1 23 9 10 10 9 10 -8z m258 6 c3 -5 2 -12 -3 -15 -5 -3
-9 1 -9 9 0 17 3 19 12 6z m585 -12 c0 -5 -4 -9 -8 -9 -5 0 -9 7 -9 15 0 8 4
12 9 9 4 -3 8 -9 8 -15z m-1360 2 c0 -6 -4 -12 -8 -15 -5 -3 -9 1 -9 9 0 8 4
15 9 15 4 0 8 -4 8 -9z m144 1 c3 -5 -1 -9 -9 -9 -8 0 -12 4 -9 9 3 4 7 8 9 8
2 0 6 -4 9 -8z m240 0 c3 -5 -1 -9 -9 -9 -8 0 -12 4 -9 9 3 4 7 8 9 8 2 0 6
-4 9 -8z m46 2 c0 -8 -19 -13 -24 -6 -3 5 1 9 9 9 8 0 15 -2 15 -3z m610 -3
c0 -6 -4 -12 -8 -15 -5 -3 -9 1 -9 9 0 8 4 15 9 15 4 0 8 -4 8 -9z m144 1 c3
-5 -1 -9 -9 -9 -8 0 -12 4 -9 9 3 4 7 8 9 8 2 0 6 -4 9 -8z m-1247 -17 c0 -8
-4 -15 -9 -15 -10 0 -11 14 -1 23 9 10 10 9 10 -8z m803 -4 c0 -6 -4 -12 -8
-15 -5 -3 -9 1 -9 9 0 8 4 15 9 15 4 0 8 -4 8 -9z m447 -19 c-10 -10 -14 -22
-10 -27 5 -4 2 -5 -5 -1 -11 6 -10 12 4 27 9 10 19 19 22 19 3 0 -2 -8 -11
-18z m-1331 -17 c1 -8 -1 -17 -5 -19 -4 -3 -7 6 -7 19 0 25 8 25 12 0z m40 9
c-1 -8 -6 -17 -12 -21 -5 -4 -6 -4 -2 1 4 5 3 14 -2 21 -7 8 -5 12 4 12 8 0
13 -6 12 -13z m221 1 c0 -8 -4 -12 -9 -9 -4 3 -8 9 -8 15 0 5 4 9 8 9 5 0 9
-7 9 -15z m123 6 c0 -6 -4 -12 -8 -15 -5 -3 -9 1 -9 9 0 8 4 15 9 15 4 0 8 -4
8 -9z m260 -1 c0 -5 -5 -10 -11 -10 -5 0 -7 5 -4 10 3 6 8 10 11 10 2 0 4 -4
4 -10z m131 -13 c-10 -9 -11 -8 -5 6 3 10 9 15 12 12 3 -3 0 -11 -7 -18z m149
8 c-5 -7 -9 -14 -7 -16 1 -2 0 -3 -2 -1 -11 7 -7 29 5 29 9 0 11 -4 4 -12z
m36 -9 c0 -14 -3 -23 -7 -20 -6 3 -6 22 0 42 3 10 7 -2 7 -22z m259 13 c2 -3
-8 -5 -25 -5 -16 0 -27 3 -25 6 5 8 42 6 50 -1z m-1058 -16 c-4 -3 -1 -13 6
-22 11 -14 10 -14 -5 -2 -16 12 -16 31 -1 31 4 0 3 -3 0 -7z m328 -3 c3 -6 -1
-7 -9 -4 -18 7 -21 14 -7 14 6 0 13 -4 16 -10z m35 0 c0 -5 -2 -10 -4 -10 -3
0 -8 5 -11 10 -3 6 -1 10 4 10 6 0 11 -4 11 -10z m196 -5 c-1 -8 -5 -17 -8
-21 -5 -4 -4 16 1 34 3 9 9 -1 7 -13z m569 5 c3 -6 -1 -7 -9 -4 -18 7 -21 14
-7 14 6 0 13 -4 16 -10z m190 -9 c3 -5 2 -12 -3 -15 -5 -3 -9 1 -9 9 0 17 3
19 12 6z m-1511 -9 c3 -5 -1 -9 -9 -9 -8 0 -12 4 -9 9 3 4 7 8 9 8 2 0 6 -4 9
-8z m290 0 c2 -4 -5 -9 -17 -9 -17 -2 -19 0 -7 7 18 12 18 12 24 2z m141 -1
c-9 -8 -36 -10 -30 -2 2 4 11 8 20 8 8 0 13 -3 10 -6z m262 -6 c0 -8 -4 -12
-9 -9 -4 3 -8 9 -8 15 0 5 4 9 8 9 5 0 9 -7 9 -15z m139 -7 c19 -23 19 -23 -2
-5 -11 9 -24 14 -29 10 -4 -5 -5 -2 -1 5 9 16 10 16 32 -10z m39 13 c3 -5 2
-12 -3 -15 -5 -3 -9 1 -9 9 0 17 3 19 12 6z m159 1 c3 -5 -1 -9 -9 -9 -8 0
-12 4 -9 9 3 4 7 8 9 8 2 0 6 -4 9 -8z m220 -4 c-3 -4 -11 -5 -19 -1 -21 7
-19 12 4 10 11 0 18 -5 15 -9z m277 -11 c-10 -9 -11 -8 -5 6 3 10 9 15 12 12
3 -3 0 -11 -7 -18z m-414 -12 c0 -8 -4 -12 -9 -9 -5 3 -6 10 -3 15 9 13 12 11
12 -6z m39 -21 c0 -13 -2 -22 -5 -19 -3 3 -6 17 -7 31 0 13 2 22 5 19 3 -3 6
-17 7 -31z m280 10 c1 -9 0 -13 -4 -10 -3 4 -7 14 -8 22 -1 9 0 13 4 10 3 -4
7 -14 8 -22z m44 14 c0 -4 -4 -8 -9 -8 -6 0 -12 4 -15 8 -3 5 1 9 9 9 8 0 15
-4 15 -9z m-461 -11 c8 -10 7 -14 -2 -14 -8 0 -14 6 -14 14 0 7 1 13 2 13 2 0
8 -6 14 -13z m-1042 -12 c0 -8 -4 -12 -9 -9 -4 3 -8 9 -8 15 0 5 4 9 8 9 5 0
9 -7 9 -15z m327 4 c3 -3 -8 -5 -24 -4 -16 1 -32 4 -35 7 -3 3 8 5 24 4 16 -1
32 -4 35 -7z m241 2 c-9 -8 -36 -10 -30 -2 2 4 11 8 20 8 8 0 13 -3 10 -6z
m29 -7 c3 -8 2 -12 -4 -9 -6 3 -10 10 -10 16 0 14 7 11 14 -7z m326 10 c0 -8
-19 -13 -24 -6 -3 5 1 9 9 9 8 0 15 -2 15 -3z m160 2 c0 -3 -4 -8 -10 -11 -5
-3 -10 -1 -10 4 0 6 5 11 10 11 6 0 10 -2 10 -4z m294 -4 c3 -5 -1 -9 -9 -9
-8 0 -12 4 -9 9 3 4 7 8 9 8 2 0 6 -4 9 -8z m-981 -35 c4 3 7 4 7 0 0 -17 -20
-14 -36 6 -19 22 -19 22 2 4 11 -9 24 -14 27 -10z m751 15 c3 -5 -1 -9 -9 -9
-8 0 -15 4 -15 9 0 4 4 8 9 8 6 0 12 -4 15 -8z m-864 -23 c0 -5 -4 -9 -8 -9
-5 0 -9 7 -9 15 0 8 4 12 9 9 4 -3 8 -9 8 -15z m57 6 c0 -8 -4 -12 -9 -9 -5 3
-6 10 -3 15 9 13 12 11 12 -6z m183 -6 c0 -5 -4 -9 -8 -9 -5 0 -9 7 -9 15 0 8
4 12 9 9 4 -3 8 -9 8 -15z m-206 -5 c3 -8 2 -12 -4 -9 -6 3 -10 10 -10 16 0
14 7 11 14 -7z m143 1 c0 -8 -4 -12 -9 -9 -5 3 -6 10 -3 15 9 13 12 11 12 -6z
m133 9 c0 -8 -19 -13 -24 -6 -3 5 1 9 9 9 8 0 15 -2 15 -3z m205 -3 c-9 -8
-36 -10 -30 -2 2 4 11 8 20 8 8 0 13 -3 10 -6z m-179 -27 c1 -9 0 -13 -4 -10
-3 4 -7 14 -8 22 -1 9 0 13 4 10 3 -4 7 -14 8 -22z m38 7 c3 -4 -4 -17 -17
-27 -22 -19 -22 -19 -4 2 9 11 14 24 10 27 -3 4 -4 7 0 7 3 0 8 -4 11 -9z m41
-9 c-3 -3 -11 0 -18 7 -9 10 -8 11 6 5 10 -3 15 -9 12 -12z m365 6 c0 -4 -4
-8 -9 -8 -6 0 -12 4 -15 8 -3 5 1 9 9 9 8 0 15 -4 15 -9z m240 0 c0 -4 -4 -8
-9 -8 -6 0 -12 4 -15 8 -3 5 1 9 9 9 8 0 15 -4 15 -9z m84 0 c-3 -4 -9 -8 -15
-8 -5 0 -9 4 -9 8 0 5 7 9 15 9 8 0 12 -4 9 -9z m-991 -13 c-3 -9 -8 -14 -10
-11 -3 3 -2 9 2 15 9 16 15 13 8 -4z m404 0 c0 -8 -4 -15 -9 -15 -10 0 -11 14
-1 23 9 10 10 9 10 -8z m441 -1 c8 -2 17 -5 20 -8 3 -4 -4 -5 -16 -3 -12 2
-28 9 -35 17 -10 10 -9 11 3 4 8 -5 21 -9 28 -10z m-1123 -3 c-9 -8 -36 -10
-30 -2 2 4 11 8 20 8 8 0 13 -3 10 -6z m61 -3 c3 -4 -1 -5 -10 -4 -8 1 -18 5
-22 8 -3 4 1 5 10 4 8 -1 18 -5 22 -8z m138 1 c3 -3 -5 -5 -19 -5 -13 0 -22 3
-19 7 4 8 30 6 38 -2z m221 1 c3 -5 1 -10 -4 -10 -6 0 -11 5 -11 10 0 6 2 10
4 10 3 0 8 -4 11 -10z m600 1 c-9 -8 -36 -10 -30 -2 2 4 11 8 20 8 8 0 13 -3
10 -6z m205 5 c0 -3 -4 -8 -10 -11 -5 -3 -10 -1 -10 4 0 6 5 11 10 11 6 0 10
-2 10 -4z m131 -19 c-10 -9 -11 -8 -5 6 3 10 9 15 12 12 3 -3 0 -11 -7 -18z
m-55 -13 c1 -9 0 -13 -4 -10 -3 4 -7 14 -8 22 -1 9 0 13 4 10 3 -4 7 -14 8
-22z m-1161 -3 c3 -5 2 -12 -3 -15 -5 -3 -9 1 -9 9 0 17 3 19 12 6z m1005 5
c0 -2 -6 -9 -14 -15 -11 -9 -16 -9 -22 0 -4 7 -3 9 4 5 6 -3 13 -2 17 4 6 10
15 14 15 6z m-740 -15 c0 -6 -4 -12 -8 -15 -5 -3 -9 1 -9 9 0 8 4 15 9 15 4 0
8 -4 8 -9z m140 3 c0 -8 -19 -13 -24 -6 -3 5 1 9 9 9 8 0 15 -2 15 -3z m170 0
c0 -8 -19 -13 -24 -6 -3 5 1 9 9 9 8 0 15 -2 15 -3z m666 -16 c19 -23 19 -23
-2 -5 -11 9 -24 14 -29 10 -4 -5 -5 -2 -1 5 9 16 10 16 32 -10z m39 13 c3 -5
2 -12 -3 -15 -5 -3 -9 1 -9 9 0 17 3 19 12 6z m-1479 -47 c0 -13 -2 -22 -5
-19 -3 3 -6 17 -7 31 0 13 2 22 5 19 3 -3 6 -17 7 -31z m44 24 c0 -4 -4 -8 -9
-8 -6 0 -12 4 -15 8 -3 5 1 9 9 9 8 0 15 -4 15 -9z m73 -13 c-7 -21 -12 -19
-10 4 0 11 5 18 9 15 4 -3 5 -11 1 -19z m47 13 c0 -4 -4 -8 -9 -8 -6 0 -12 4
-15 8 -3 5 1 9 9 9 8 0 15 -4 15 -9z m157 -3 c0 -8 -4 -12 -9 -9 -5 3 -6 10
-3 15 9 13 12 11 12 -6z m36 -10 c-7 -21 -12 -19 -10 4 0 11 5 18 9 15 4 -3 5
-11 1 -19z m42 7 c-3 -3 -11 0 -18 7 -9 10 -8 11 6 5 10 -3 15 -9 12 -12z
m449 6 c-3 -4 -9 -8 -15 -8 -5 0 -9 4 -9 8 0 5 7 9 15 9 8 0 12 -4 9 -9z m33
-3 c0 -8 -4 -12 -9 -9 -5 3 -6 10 -3 15 9 13 12 11 12 -6z m483 11 c0 -2 -7
-7 -16 -10 -8 -3 -12 -2 -9 4 6 10 25 14 25 6z m-565 -15 c3 -5 2 -12 -3 -15
-5 -3 -9 1 -9 9 0 17 3 19 12 6z m385 -12 c0 -5 -4 -9 -8 -9 -5 0 -9 7 -9 15
0 8 4 12 9 9 4 -3 8 -9 8 -15z m-943 -8 c0 -11 -5 -18 -9 -15 -4 3 -5 11 -1
19 7 21 12 19 10 -4z m240 0 c0 -11 -5 -18 -9 -15 -4 3 -5 11 -1 19 7 21 12
19 10 -4z m239 -7 c1 -9 0 -13 -4 -10 -3 4 -7 14 -8 22 -1 9 0 13 4 10 3 -4 7
-14 8 -22z m594 20 c0 -8 -19 -13 -24 -6 -3 5 1 9 9 9 8 0 15 -2 15 -3z m190
0 c0 -8 -19 -13 -24 -6 -3 5 1 9 9 9 8 0 15 -2 15 -3z m-1465 -13 c3 -5 2 -12
-3 -15 -5 -3 -9 1 -9 9 0 17 3 19 12 6z m240 0 c3 -5 2 -12 -3 -15 -5 -3 -9 1
-9 9 0 17 3 19 12 6z m-195 -9 c0 -5 -7 -9 -15 -9 -8 0 -12 4 -9 9 3 4 9 8 15
8 5 0 9 -4 9 -8z m240 0 c0 -5 -7 -9 -15 -9 -8 0 -12 4 -9 9 3 4 9 8 15 8 5 0
9 -4 9 -8z m364 0 c3 -5 -1 -9 -9 -9 -8 0 -15 4 -15 9 0 4 4 8 9 8 6 0 12 -4
15 -8z m592 -7 c-1 -8 -5 -17 -8 -21 -5 -4 -4 16 1 34 3 9 9 -1 7 -13z m160 0
c-1 -8 -5 -17 -8 -21 -5 -4 -4 16 1 34 3 9 9 -1 7 -13z m-459 -10 c0 -8 -4
-15 -9 -15 -10 0 -11 14 -1 23 9 10 10 9 10 -8z m-862 -4 c3 -5 2 -12 -3 -15
-5 -3 -9 1 -9 9 0 17 3 19 12 6z m240 0 c3 -5 2 -12 -3 -15 -5 -3 -9 1 -9 9 0
17 3 19 12 6z m489 1 c3 -5 -1 -9 -9 -9 -8 0 -12 4 -9 9 3 4 7 8 9 8 2 0 6 -4
9 -8z m316 2 c0 -8 -19 -13 -24 -6 -3 5 1 9 9 9 8 0 15 -2 15 -3z m54 -6 c-3
-4 -11 -5 -19 -1 -21 7 -19 12 4 10 11 0 18 -5 15 -9z m160 0 c-3 -4 -11 -5
-19 -1 -21 7 -19 12 4 10 11 0 18 -5 15 -9z m-257 -13 c0 -8 -4 -12 -9 -9 -5
3 -6 10 -3 15 9 13 12 11 12 -6z m-517 -7 c0 -4 -4 -8 -9 -8 -6 0 -12 4 -15 8
-3 5 1 9 9 9 8 0 15 -4 15 -9z m617 -13 c0 -8 -4 -15 -9 -15 -10 0 -11 14 -1
23 9 10 10 9 10 -8z m160 0 c0 -8 -4 -15 -9 -15 -10 0 -11 14 -1 23 9 10 10 9
10 -8z m-1223 -4 c-8 -8 -34 -10 -38 -2 -3 4 6 7 19 7 14 0 22 -2 19 -5z m246
3 c0 -8 -19 -13 -24 -6 -3 5 1 9 9 9 8 0 15 -2 15 -3z m94 -10 c3 -8 2 -12 -4
-9 -6 3 -10 10 -10 16 0 14 7 11 14 -7z m206 7 c0 -6 -4 -12 -8 -15 -5 -3 -9
1 -9 9 0 8 4 15 9 15 4 0 8 -4 8 -9z m256 -15 c0 -14 -3 -23 -7 -20 -6 3 -6
22 0 42 3 10 7 -2 7 -22z m135 1 c-10 -9 -11 -8 -5 6 3 10 9 15 12 12 3 -3 0
-11 -7 -18z m-856 -6 c3 -5 2 -12 -3 -15 -5 -3 -9 1 -9 9 0 17 3 19 12 6z
m571 -3 c3 -4 -1 -5 -10 -4 -8 1 -18 5 -22 8 -3 4 1 5 10 4 8 -1 18 -5 22 -8z
m34 2 c0 -5 -2 -10 -4 -10 -3 0 -8 5 -11 10 -3 6 -1 10 4 10 6 0 11 -4 11 -10z
m-903 -15 c0 -8 -4 -15 -9 -15 -10 0 -11 14 -1 23 9 10 10 9 10 -8z m220 1 c0
-15 -21 -16 -34 -1 -4 4 -3 5 4 1 6 -3 14 -2 18 4 8 14 12 13 12 -4z m600 -1
c0 -8 -4 -12 -9 -9 -5 3 -6 10 -3 15 9 13 12 11 12 -6z m396 0 c-3 -9 -8 -14
-10 -11 -3 3 -2 9 2 15 9 16 15 13 8 -4z m-1157 -21 c1 -9 0 -13 -4 -10 -3 4
-7 14 -8 22 -1 9 0 13 4 10 3 -4 7 -14 8 -22z m208 18 c3 -5 -1 -9 -9 -9 -8 0
-12 4 -9 9 3 4 7 8 9 8 2 0 6 -4 9 -8z m176 -1 c0 -6 -4 -12 -8 -15 -5 -3 -9
1 -9 9 0 8 4 15 9 15 4 0 8 -4 8 -9z m57 -6 c0 -8 -4 -12 -9 -9 -5 3 -6 10 -3
15 9 13 12 11 12 -6z m59 3 c4 -7 3 -10 -1 -5 -5 4 -18 -1 -29 -10 -21 -18
-21 -18 -2 5 22 26 23 26 32 10z m208 4 c3 -5 -1 -9 -9 -9 -8 0 -12 4 -9 9 3
4 7 8 9 8 2 0 6 -4 9 -8z m407 -9 c12 -16 12 -17 -2 -6 -9 7 -20 9 -24 5 -5
-4 -5 -1 -1 6 9 16 11 15 27 -5z m139 11 c0 -8 -19 -13 -24 -6 -3 5 1 9 9 9 8
0 15 -2 15 -3z m160 0 c0 -8 -19 -13 -24 -6 -3 5 1 9 9 9 8 0 15 -2 15 -3z
m-1197 -39 c-3 -9 -8 -14 -10 -11 -3 3 -2 9 2 15 9 16 15 13 8 -4z m-29 -3 c3
-5 -1 -9 -9 -9 -8 0 -15 4 -15 9 0 4 4 8 9 8 6 0 12 -4 15 -8z m-188 -27 c-1
-8 -5 -17 -8 -21 -5 -4 -4 16 1 34 3 9 9 -1 7 -13z m504 -11 c0 -8 -19 -13
-24 -6 -3 5 1 9 9 9 8 0 15 -2 15 -3z m-300 -26 c0 -4 -4 -8 -9 -8 -6 0 -12 4
-15 8 -3 5 1 9 9 9 8 0 15 -4 15 -9z m-263 -13 c0 -8 -4 -15 -9 -15 -10 0 -11
14 -1 23 9 10 10 9 10 -8z m199 -7 c4 -7 4 -10 -1 -6 -4 4 -15 2 -24 -5 -14
-11 -14 -10 -2 6 16 20 18 21 27 5z m349 2 c-3 -5 -11 -10 -16 -10 -6 0 -7 5
-4 10 3 6 11 10 16 10 6 0 7 -4 4 -10z m-201 -18 c3 -5 -1 -9 -9 -9 -8 0 -15
4 -15 9 0 4 4 8 9 8 6 0 12 -4 15 -8z m156 4 c0 -2 -7 -7 -16 -10 -8 -3 -12
-2 -9 4 6 10 25 14 25 6z m-470 -22 c0 -8 -19 -13 -24 -6 -3 5 1 9 9 9 8 0 15
-2 15 -3z m480 2 c0 -2 -8 -10 -17 -17 -16 -13 -17 -12 -4 4 13 16 21 21 21
13z m-406 -28 c-3 -4 -9 -8 -15 -8 -5 0 -9 4 -9 8 0 5 7 9 15 9 8 0 12 -4 9
-9z m33 -3 c0 -8 -4 -12 -9 -9 -5 3 -6 10 -3 15 9 13 12 11 12 -6z m-81 -20
c1 -8 -1 -17 -5 -19 -4 -3 -7 6 -7 19 0 25 8 25 12 0z m44 -9 c0 -2 -7 -7 -16
-10 -8 -3 -12 -2 -9 4 6 10 25 14 25 6z m217 -21 c0 -8 -4 -15 -9 -15 -10 0
-11 14 -1 23 9 10 10 9 10 -8z m-213 -3 c3 -5 -1 -9 -9 -9 -8 0 -12 4 -9 9 3
4 7 8 9 8 2 0 6 -4 9 -8z m3 -40 c-10 -10 -14 -22 -10 -27 5 -4 2 -5 -5 -1
-11 6 -10 12 4 27 9 10 19 19 22 19 3 0 -2 -8 -11 -18z m-42 -22 c3 -6 -1 -7
-9 -4 -18 7 -21 14 -7 14 6 0 13 -4 16 -10z m119 2 c3 -5 -1 -9 -9 -9 -8 0
-15 4 -15 9 0 4 4 8 9 8 6 0 12 -4 15 -8z m167 -35 c-10 -9 -11 -8 -5 6 3 10
9 15 12 12 3 -3 0 -11 -7 -18z m-358 -22 c-3 -9 -8 -14 -10 -11 -3 3 -2 9 2
15 9 16 15 13 8 -4z m101 -3 c3 -5 -1 -9 -9 -9 -8 0 -12 4 -9 9 3 4 7 8 9 8 2
0 6 -4 9 -8z m-74 -64 c0 -4 -4 -8 -9 -8 -6 0 -12 4 -15 8 -3 5 1 9 9 9 8 0
15 -4 15 -9z m84 0 c-3 -4 -9 -8 -15 -8 -5 0 -9 4 -9 8 0 5 7 9 15 9 8 0 12
-4 9 -9z m152 -13 c1 -8 -2 -15 -6 -15 -5 0 -8 9 -7 20 1 21 10 18 13 -5z m44
19 c0 -8 -19 -13 -24 -6 -3 5 1 9 9 9 8 0 15 -2 15 -3z m-240 -18 c0 -3 -4 -8
-10 -11 -5 -3 -10 -1 -10 4 0 6 5 11 10 11 6 0 10 -2 10 -4z m131 -19 c-10 -9
-11 -8 -5 6 3 10 9 15 12 12 3 -3 0 -11 -7 -18z m-55 -13 c1 -9 0 -13 -4 -10
-3 4 -7 14 -8 22 -1 9 0 13 4 10 3 -4 7 -14 8 -22z m-39 -19 c0 -8 -4 -12 -9
-9 -5 3 -6 10 -3 15 9 13 12 11 12 -6z m103 5 c0 -5 -5 -10 -11 -10 -5 0 -7 5
-4 10 3 6 8 10 11 10 2 0 4 -4 4 -10z m-60 -14 c0 -2 -7 -7 -16 -10 -8 -3 -12
-2 -9 4 6 10 25 14 25 6z m37 -31 c0 -8 -4 -12 -9 -9 -5 3 -6 10 -3 15 9 13
12 11 12 -6z m-100 -40 c0 -8 -4 -12 -9 -9 -10 7 -10 24 0 24 5 0 9 -7 9 -15z
m33 -71 c0 -8 -19 -13 -24 -6 -3 5 1 9 9 9 8 0 15 -2 15 -3z m-113 -79 c0 -8
-4 -15 -9 -15 -10 0 -11 14 -1 23 9 10 10 9 10 -8z"/>
</g>
</svg>
